<svg width="72" height="72" viewBox="0 0 72 72" fill="none" xmlns="http://www.w3.org/2000/svg">
<rect width="72" height="72" rx="36" fill="#E60000"/>
<path d="M33.8545 46.7622C34.4897 46.6357 35.1486 46.7 35.7471 46.9478C36.3455 47.1955 36.8569 47.6153 37.2168 48.1538C37.5767 48.6923 37.7685 49.3255 37.7686 49.9731C37.7673 50.8409 37.422 51.6728 36.8086 52.2866C36.195 52.9005 35.363 53.245 34.4951 53.2466C33.8478 53.2468 33.2152 53.0561 32.6768 52.6968C32.1381 52.3373 31.7179 51.8262 31.4697 51.228C31.2216 50.6297 31.1561 49.9708 31.2822 49.3354C31.4083 48.7003 31.72 48.1168 32.1777 47.6587C32.6355 47.2006 33.2193 46.8888 33.8545 46.7622ZM34.498 47.4429C33.9968 47.4422 33.5059 47.5906 33.0889 47.8687C32.6722 48.1466 32.3474 48.5418 32.1553 49.0044C31.9631 49.4674 31.9121 49.9776 32.0098 50.4692C32.1074 50.9608 32.3487 51.4127 32.7031 51.7671C33.0575 52.1215 33.5094 52.3628 34.001 52.4604C34.4925 52.558 35.002 52.507 35.4648 52.3149C35.9278 52.1228 36.3235 51.7974 36.6016 51.3804C36.8795 50.9633 37.028 50.4734 37.0273 49.9722V49.9712L37.0137 49.7212C36.9548 49.1431 36.6986 48.5995 36.2842 48.1851C35.8105 47.7116 35.1687 47.4448 34.499 47.4429H34.498Z" fill="white" stroke="white" stroke-width="1.5"/>
<path d="M47.3535 46.5161C48.0371 46.3801 48.7457 46.4506 49.3896 46.7173C50.0337 46.984 50.5844 47.4355 50.9717 48.0151C51.3589 48.5947 51.5654 49.2761 51.5654 49.9731L51.5615 50.1479C51.5178 51.0189 51.1518 51.8448 50.5322 52.4644C49.8714 53.1252 48.9756 53.4969 48.041 53.4976L47.7803 53.4878C47.1751 53.4429 46.5901 53.2426 46.083 52.9038C45.5034 52.5165 45.0519 51.9658 44.7852 51.3218C44.5184 50.6778 44.448 49.9693 44.584 49.2856C44.72 48.602 45.0559 47.9739 45.5488 47.481C46.0417 46.988 46.6698 46.6521 47.3535 46.5161ZM48.041 47.6929C47.5894 47.6929 47.1479 47.8267 46.7725 48.0776C46.397 48.3286 46.1043 48.6857 45.9316 49.103C45.759 49.5203 45.7144 49.9795 45.8027 50.4224C45.8911 50.8652 46.1082 51.2722 46.4277 51.5913C46.7473 51.9104 47.1546 52.1276 47.5977 52.2153C48.0407 52.3031 48.4999 52.2568 48.917 52.0835C49.3339 51.9102 49.69 51.6174 49.9404 51.2417C50.1909 50.8659 50.3249 50.4238 50.3242 49.9722C50.3233 49.3675 50.0821 48.7882 49.6543 48.3608C49.2263 47.9334 48.6459 47.6929 48.041 47.6929Z" fill="white" stroke="white"/>
<path d="M54.3135 28.1465V36.4365C54.3137 37.0062 54.2021 37.5703 53.9844 38.0967C53.7665 38.6232 53.4467 39.1019 53.0439 39.5049C52.6412 39.9078 52.163 40.2272 51.6367 40.4453C51.1104 40.6634 50.5463 40.7754 49.9766 40.7754H30.0752L25.9648 24.3994L54.3135 28.1465Z" fill="white" stroke="white"/>
<path d="M18.0469 19.3569H24.165C24.3476 19.3553 24.5266 19.4115 24.6748 19.5181C24.823 19.6246 24.9327 19.7762 24.9893 19.9497L24.9932 19.9595L24.9971 19.9702C24.9975 19.9715 24.9978 19.9728 24.998 19.9741L25 19.9839L25.0029 19.9937L30.2588 40.939C30.2954 41.0977 30.2684 41.2645 30.1836 41.4038C30.1192 41.5094 30.0254 41.5933 29.915 41.645L29.8008 41.6851C29.7502 41.6974 29.6975 41.7038 29.6455 41.7036H29.6445C29.5066 41.7034 29.3723 41.6577 29.2637 41.5728C29.155 41.4878 29.0785 41.3686 29.0449 41.2349V41.2339L23.9551 20.979L23.8604 20.6011H18.0469C17.8819 20.6011 17.7241 20.5351 17.6074 20.4185C17.4908 20.3018 17.4248 20.144 17.4248 19.979C17.4248 19.814 17.4908 19.6562 17.6074 19.5396C17.7241 19.4229 17.8819 19.3569 18.0469 19.3569Z" fill="white" stroke="white"/>
<path d="M29.5156 40.4697C29.6758 40.432 29.8444 40.4593 29.9844 40.5459C30.1241 40.6324 30.2238 40.7708 30.2617 40.9307L30.9619 43.9854L30.9639 43.9951C31.0089 44.1754 31.1139 44.3353 31.2607 44.4492C31.4069 44.5625 31.5867 44.6227 31.7715 44.6221V44.623H52.6689C52.8339 44.623 52.9927 44.689 53.1094 44.8057C53.2258 44.9222 53.2909 45.0804 53.291 45.2451C53.291 45.4101 53.226 45.5689 53.1094 45.6855C52.9927 45.8022 52.8339 45.8672 52.6689 45.8672L52.668 45.8701H31.7773C31.3105 45.869 30.8577 45.7096 30.4932 45.418C30.1287 45.1264 29.8741 44.7198 29.7705 44.2646L29.7695 44.2607L29.0537 41.2158C29.0161 41.0556 29.0433 40.887 29.1299 40.7471C29.2165 40.6071 29.3554 40.5075 29.5156 40.4697Z" fill="white" stroke="white"/>
<path d="M34.0227 39.4061C34.0651 39.4061 34.115 39.4659 34.1923 39.5233C34.1125 39.5806 34.0601 39.648 34.0227 39.638C33.9853 39.628 33.9355 39.5582 33.8931 39.5158C33.943 39.4759 33.9779 39.4086 34.0227 39.4061ZM33.8931 30.5691C33.9355 30.614 33.9729 30.6813 34.0227 30.6938C34.0726 30.7062 34.1125 30.6339 34.1923 30.5766C34.115 30.5192 34.0651 30.4569 34.0227 30.4594C33.9804 30.4619 33.943 30.5292 33.8931 30.5691ZM42.6528 34.1423C42.6487 34.2233 42.6768 34.3025 42.731 34.3628C42.7852 34.4231 42.8611 34.4595 42.942 34.464C43.024 34.4693 43.1048 34.4418 43.1665 34.3875C43.2282 34.3333 43.2659 34.2567 43.2712 34.1747C43.2764 34.0927 43.2489 34.012 43.1947 33.9502C43.1405 33.8885 43.0639 33.8509 42.9819 33.8456C42.9406 33.8425 42.8991 33.8479 42.86 33.8613C42.8208 33.8747 42.7847 33.8959 42.754 33.9236C42.7232 33.9514 42.6984 33.985 42.681 34.0226C42.6636 34.0602 42.654 34.1009 42.6528 34.1423ZM33.9006 37.7404C33.9006 37.7778 33.9629 37.8302 34.0202 37.91C34.0776 37.8277 34.1399 37.7778 34.1349 37.7354C34.13 37.6931 34.0626 37.6507 34.0227 37.6083C33.9804 37.6507 33.9105 37.6831 33.9006 37.7404ZM34.1349 25.2155C34.1349 25.1707 34.0626 25.1308 34.0227 25.0884C33.9804 25.1333 33.9105 25.1707 33.9006 25.2205C33.8906 25.2704 33.9629 25.3103 34.0202 25.3901C34.0776 25.3028 34.1399 25.2529 34.1349 25.2155ZM33.8856 28.7838C33.928 28.8286 33.9654 28.8985 34.0153 28.9084C34.0651 28.9184 34.105 28.8511 34.1848 28.7937C34.1075 28.7339 34.0577 28.6715 34.0153 28.674C33.9729 28.6765 33.943 28.7414 33.8931 28.7788L33.8856 28.7838ZM34.0227 27.1281C34.0601 27.0832 34.125 27.0383 34.1275 26.9934C34.13 26.9485 34.0626 26.9037 34.0028 26.8288C33.9479 26.9086 33.8831 26.966 33.8931 27.0034C33.9031 27.0408 33.9853 27.0807 34.0302 27.1231L34.0227 27.1281ZM34.1275 32.3644C34.1275 32.3195 34.0552 32.2797 34.0153 32.2373C33.9729 32.2821 33.9031 32.3195 33.8931 32.3694C33.8831 32.4193 33.9554 32.4592 34.0128 32.539C34.0776 32.4617 34.1399 32.4118 34.1349 32.3669L34.1275 32.3644ZM34.0153 34.3268C34.0701 34.247 34.1349 34.1922 34.1275 34.1548C34.12 34.1174 34.0452 34.07 34.0003 34.0276C33.9629 34.0725 33.8956 34.1149 33.8931 34.1598C33.8906 34.2046 33.9629 34.252 34.0227 34.3293L34.0153 34.3268ZM34.0153 36.0573C34.0601 36.0573 34.1025 35.9875 34.1449 35.9501C34.1025 35.9052 34.0651 35.8354 34.0153 35.8254C33.9654 35.8154 33.9255 35.8828 33.8457 35.9401C33.9205 36 33.9704 36.0648 34.0128 36.0598L34.0153 36.0573ZM35.8131 36.1321C35.8382 36.1315 35.8629 36.1259 35.8858 36.1156C35.9087 36.1053 35.9294 36.0906 35.9465 36.0722C35.9637 36.0539 35.9771 36.0323 35.9858 36.0088C35.9946 35.9853 35.9986 35.9602 35.9976 35.9351C35.9969 35.8866 35.9772 35.8403 35.9427 35.8063C35.9081 35.7722 35.8616 35.7531 35.8131 35.7531C35.788 35.7524 35.763 35.7568 35.7396 35.7658C35.7162 35.7749 35.6948 35.7885 35.6767 35.8059C35.6586 35.8233 35.6442 35.8442 35.6342 35.8672C35.6242 35.8902 35.6189 35.915 35.6186 35.9401C35.6198 35.9909 35.6404 36.0393 35.676 36.0754C35.7117 36.1116 35.7598 36.1327 35.8106 36.1346L35.8131 36.1321ZM35.8131 28.5942C35.7626 28.5949 35.7144 28.6154 35.6789 28.6514C35.6435 28.6873 35.6236 28.7358 35.6236 28.7862C35.6232 28.8105 35.6277 28.8345 35.6367 28.8571C35.6456 28.8796 35.6589 28.9001 35.6759 28.9175C35.6928 28.9348 35.7129 28.9487 35.7352 28.9583C35.7574 28.9678 35.7814 28.9729 35.8056 28.9733C35.8561 28.9746 35.9051 28.956 35.942 28.9215C35.9789 28.8869 36.0006 28.8392 36.0026 28.7887C36.0019 28.7376 35.9811 28.6888 35.9447 28.6528C35.9083 28.6169 35.8592 28.5967 35.8081 28.5967L35.8131 28.5942ZM35.8131 26.8064C35.789 26.8054 35.7649 26.8092 35.7423 26.8176C35.7196 26.826 35.6989 26.8388 35.6813 26.8553C35.6636 26.8717 35.6495 26.8916 35.6396 26.9136C35.6296 26.9356 35.6242 26.9593 35.6236 26.9834C35.6208 27.034 35.6382 27.0835 35.6718 27.1214C35.7054 27.1592 35.7526 27.1822 35.8031 27.1854C35.8537 27.1862 35.9026 27.1674 35.9398 27.1331C35.9769 27.0987 35.9994 27.0514 36.0026 27.0009C36.0026 26.9755 35.9975 26.9503 35.9877 26.9268C35.9779 26.9034 35.9636 26.8821 35.9455 26.8642C35.9274 26.8464 35.9059 26.8323 35.8823 26.8228C35.8588 26.8133 35.8335 26.8086 35.8081 26.8089L35.8131 26.8064ZM37.6009 39.2964C37.5713 39.295 37.5417 39.2997 37.514 39.3104C37.4863 39.321 37.4611 39.3372 37.44 39.3581C37.4189 39.379 37.4024 39.404 37.3915 39.4315C37.3805 39.4591 37.3754 39.4887 37.3765 39.5183C37.376 39.5628 37.3888 39.6064 37.4131 39.6437C37.4375 39.6809 37.4723 39.71 37.5133 39.7274C37.5543 39.7448 37.5995 39.7496 37.6432 39.7412C37.6869 39.7328 37.7271 39.7116 37.7587 39.6804C37.7903 39.6491 37.812 39.6091 37.8208 39.5655C37.8297 39.5219 37.8254 39.4767 37.8085 39.4355C37.7916 39.3943 37.7628 39.3591 37.7259 39.3344C37.6889 39.3096 37.6454 39.2964 37.6009 39.2964ZM37.6009 37.506C37.5565 37.506 37.5132 37.5192 37.4762 37.5439C37.4393 37.5685 37.4106 37.6036 37.3936 37.6446C37.3766 37.6856 37.3722 37.7307 37.3808 37.7742C37.3895 37.8178 37.4109 37.8578 37.4422 37.8891C37.4736 37.9205 37.5136 37.9419 37.5571 37.9506C37.6007 37.9592 37.6458 37.9548 37.6868 37.9378C37.7278 37.9208 37.7629 37.892 37.7875 37.8551C37.8122 37.8182 37.8253 37.7748 37.8253 37.7305C37.8257 37.7006 37.82 37.6709 37.8085 37.6433C37.797 37.6158 37.78 37.5908 37.7585 37.57C37.737 37.5492 37.7115 37.5331 37.6836 37.5225C37.6556 37.5119 37.6258 37.5072 37.5959 37.5085L37.6009 37.506ZM35.8081 30.3871C35.7596 30.3857 35.7125 30.4036 35.677 30.4367C35.6415 30.4698 35.6205 30.5156 35.6186 30.5641C35.6159 30.6146 35.6332 30.6642 35.6668 30.702C35.7004 30.7399 35.7476 30.7629 35.7981 30.7661C35.8487 30.7668 35.8976 30.7481 35.9348 30.7137C35.9719 30.6794 35.9944 30.6321 35.9976 30.5816C35.9979 30.5564 35.9933 30.5313 35.9839 30.5079C35.9746 30.4845 35.9607 30.4631 35.9431 30.4451C35.9255 30.427 35.9046 30.4126 35.8814 30.4026C35.8582 30.3927 35.8333 30.3874 35.8081 30.3871ZM35.8081 39.3338C35.7596 39.3344 35.7133 39.3542 35.6792 39.3887C35.6452 39.4232 35.6261 39.4698 35.6261 39.5183C35.6254 39.5434 35.6297 39.5684 35.6388 39.5918C35.6479 39.6152 35.6615 39.6366 35.6789 39.6547C35.6963 39.6727 35.7171 39.6872 35.7402 39.6972C35.7632 39.7072 35.788 39.7125 35.8131 39.7128C35.8634 39.7109 35.9112 39.6901 35.9468 39.6545C35.9824 39.6189 36.0032 39.5711 36.0051 39.5208C36.0048 39.4948 35.9992 39.4692 35.9886 39.4454C35.978 39.4217 35.9627 39.4004 35.9435 39.3829C35.9243 39.3653 35.9017 39.3519 35.8771 39.3435C35.8526 39.335 35.8265 39.3317 35.8006 39.3338H35.8081ZM35.8081 32.1774C35.7596 32.1761 35.7125 32.1939 35.677 32.227C35.6415 32.2602 35.6205 32.306 35.6186 32.3545C35.6172 32.3797 35.6209 32.4049 35.6293 32.4287C35.6377 32.4525 35.6508 32.4745 35.6677 32.4932C35.6846 32.512 35.705 32.5272 35.7279 32.5381C35.7507 32.5489 35.7754 32.5552 35.8006 32.5564C35.851 32.5559 35.8993 32.5363 35.9359 32.5016C35.9724 32.4669 35.9945 32.4197 35.9976 32.3694C35.9976 32.3189 35.9777 32.2705 35.9422 32.2345C35.9068 32.1986 35.8586 32.1781 35.8081 32.1774ZM35.8081 37.5434C35.783 37.5428 35.758 37.5471 35.7346 37.5562C35.7112 37.5653 35.6898 37.5789 35.6717 37.5963C35.6536 37.6137 35.6392 37.6345 35.6292 37.6575C35.6192 37.6806 35.6139 37.7054 35.6136 37.7305C35.6126 37.7547 35.6164 37.7789 35.6247 37.8017C35.6331 37.8244 35.6459 37.8453 35.6623 37.8632C35.6788 37.881 35.6985 37.8954 35.7206 37.9056C35.7426 37.9158 35.7664 37.9215 35.7906 37.9225C35.8412 37.9252 35.8907 37.9079 35.9286 37.8742C35.9664 37.8406 35.9894 37.7934 35.9926 37.7429C35.9934 37.6931 35.9754 37.6449 35.9421 37.6079C35.9088 37.5709 35.8627 37.5478 35.8131 37.5434H35.8081ZM35.8081 33.9653C35.783 33.9659 35.7583 33.9715 35.7353 33.9818C35.7124 33.9921 35.6918 34.0068 35.6746 34.0252C35.6575 34.0435 35.6441 34.065 35.6353 34.0886C35.6266 34.1121 35.6226 34.1372 35.6236 34.1622C35.6242 34.2108 35.644 34.257 35.6785 34.2911C35.713 34.3252 35.7596 34.3443 35.8081 34.3443C35.8588 34.3443 35.9076 34.3245 35.9439 34.2891C35.9802 34.2537 36.0013 34.2055 36.0026 34.1548C36.0006 34.1034 35.9787 34.0548 35.9414 34.0194C35.9041 33.984 35.8545 33.9646 35.8031 33.9653H35.8081ZM42.9694 32.6736C43.0304 32.6731 43.0898 32.6546 43.1403 32.6205C43.1907 32.5863 43.23 32.538 43.2531 32.4816C43.2762 32.4252 43.2821 32.3633 43.2701 32.3035C43.2581 32.2438 43.2287 32.1889 43.1856 32.1458C43.1425 32.1027 43.0876 32.0733 43.0279 32.0613C42.9681 32.0493 42.9062 32.0552 42.8498 32.0783C42.7934 32.1014 42.7451 32.1406 42.7109 32.1911C42.6767 32.2416 42.6582 32.301 42.6578 32.3619C42.6564 32.4028 42.6634 32.4435 42.6782 32.4816C42.6931 32.5197 42.7156 32.5544 42.7442 32.5836C42.7729 32.6127 42.8072 32.6357 42.8451 32.6512C42.883 32.6667 42.9236 32.6743 42.9645 32.6736H42.9694ZM35.8131 41.1216C35.7702 41.1214 35.7286 41.1355 35.6947 41.1617C35.6608 41.1879 35.6366 41.2247 35.6261 41.2663H35.9876C35.977 41.2271 35.9545 41.1922 35.9232 41.1663C35.892 41.1404 35.8535 41.1248 35.8131 41.1216ZM34.0128 41.1939C33.9853 41.1939 33.9479 41.2239 33.8981 41.2663H34.0975C34.0778 41.2337 34.0481 41.2083 34.0128 41.1939ZM37.6009 41.0867C37.5483 41.0842 37.4967 41.1011 37.4558 41.1342C37.4148 41.1673 37.3875 41.2143 37.379 41.2663H37.8129C37.8046 41.216 37.7787 41.1704 37.7399 41.1375C37.7011 41.1046 37.6518 41.0866 37.6009 41.0867ZM35.8006 25.3976C35.8488 25.3984 35.8955 25.3807 35.9312 25.3483C35.9668 25.3159 35.9888 25.2711 35.9926 25.223L35.6236 25.1757C35.6225 25.1831 35.6225 25.1906 35.6236 25.1981C35.6221 25.2476 35.6396 25.2959 35.6725 25.333C35.7054 25.37 35.7512 25.3931 35.8006 25.3976ZM37.5885 35.7182C37.5435 35.7192 37.4998 35.7336 37.463 35.7594C37.4263 35.7853 37.398 35.8215 37.3818 35.8635C37.3657 35.9055 37.3623 35.9513 37.3723 35.9952C37.3822 36.039 37.4049 36.079 37.4376 36.1099C37.4703 36.1408 37.5114 36.1613 37.5557 36.1688C37.6001 36.1763 37.6457 36.1704 37.6867 36.152C37.7277 36.1335 37.7623 36.1033 37.7861 36.0651C37.8099 36.027 37.8218 35.9826 37.8204 35.9376C37.8204 35.9077 37.8143 35.8781 37.8025 35.8507C37.7907 35.8232 37.7735 35.7984 37.7517 35.7779C37.73 35.7573 37.7043 35.7414 37.6763 35.7312C37.6482 35.7209 37.6183 35.7165 37.5885 35.7182ZM39.3863 41.0543C39.3261 41.0536 39.2678 41.0747 39.222 41.1136C39.1761 41.1526 39.1459 41.2068 39.1369 41.2663H39.6356C39.6266 41.2068 39.5964 41.1526 39.5506 41.1136C39.5048 41.0747 39.4464 41.0536 39.3863 41.0543ZM47.9988 26.8139C47.9663 26.8673 47.9482 26.9284 47.9465 26.9909C47.9422 27.0438 47.9489 27.097 47.9662 27.1471C47.9835 27.1972 48.011 27.2432 48.047 27.2822C48.0829 27.3212 48.1266 27.3523 48.1752 27.3736C48.2237 27.3949 48.2762 27.4058 48.3292 27.4058C48.3823 27.4058 48.4347 27.3949 48.4833 27.3736C48.5319 27.3523 48.5755 27.3212 48.6115 27.2822C48.6474 27.2432 48.6749 27.1972 48.6922 27.1471C48.7095 27.097 48.7163 27.0438 48.712 26.9909C48.7109 26.9597 48.7058 26.9287 48.697 26.8987L47.9988 26.8139ZM50.1208 27.4024C50.2003 27.4014 50.2777 27.3773 50.3437 27.333C50.4097 27.2887 50.4613 27.2262 50.4923 27.153L49.7169 27.0508C49.7312 27.1479 49.7797 27.2368 49.8538 27.3013C49.9279 27.3658 50.0226 27.4016 50.1208 27.4024ZM52.1156 27.3575L51.6169 27.2901C51.6545 27.3288 51.6995 27.3595 51.7492 27.3805C51.7989 27.4015 51.8522 27.4123 51.9062 27.4123C51.9788 27.4124 52.0501 27.3935 52.1131 27.3575H52.1156ZM44.7448 27.3325C44.8292 27.3278 44.9087 27.2915 44.9675 27.2309C45.0264 27.1702 45.0603 27.0897 45.0625 27.0052C45.0647 26.9207 45.035 26.8385 44.9794 26.7749C44.9238 26.7113 44.8463 26.6709 44.7623 26.6618C44.7174 26.6601 44.6726 26.6675 44.6306 26.6835C44.5886 26.6996 44.5503 26.7239 44.5179 26.7551C44.4855 26.7863 44.4598 26.8237 44.4422 26.8651C44.4247 26.9065 44.4156 26.951 44.4157 26.9959C44.4147 27.0396 44.4224 27.083 44.4383 27.1236C44.4543 27.1642 44.4781 27.2013 44.5085 27.2326C44.5389 27.2639 44.5752 27.2889 44.6154 27.3061C44.6555 27.3232 44.6987 27.3322 44.7423 27.3325H44.7448ZM41.1741 41.0294C41.1053 41.0285 41.0388 41.0538 40.9879 41.1C40.937 41.1463 40.9055 41.2102 40.8998 41.2787H41.4459C41.4397 41.2108 41.4084 41.1476 41.3582 41.1015C41.3079 41.0554 41.2423 41.0297 41.1741 41.0294ZM42.9645 30.8858C43.0253 30.8853 43.0846 30.8669 43.135 30.8328C43.1854 30.7987 43.2247 30.7506 43.2478 30.6943C43.271 30.6381 43.277 30.5762 43.2652 30.5166C43.2534 30.4569 43.2243 30.402 43.1814 30.3588C43.1386 30.3157 43.084 30.2861 43.0244 30.2738C42.9648 30.2615 42.9029 30.267 42.8465 30.2898C42.79 30.3125 42.7416 30.3513 42.7071 30.4015C42.6727 30.4516 42.6538 30.5108 42.6528 30.5716C42.6514 30.613 42.6585 30.6543 42.6736 30.6929C42.6888 30.7314 42.7117 30.7665 42.7408 30.7959C42.77 30.8253 42.8049 30.8485 42.8434 30.8639C42.8818 30.8794 42.923 30.8868 42.9645 30.8858ZM50.1158 40.9072C50.0174 40.9094 49.9229 40.9468 49.8497 41.0127C49.7765 41.0786 49.7294 41.1686 49.7169 41.2663H49.9662C50.1482 41.2663 50.3278 41.2538 50.5023 41.2363C50.4844 41.1459 50.4365 41.0643 50.3663 41.0045C50.2962 40.9448 50.2079 40.9105 50.1158 40.9072ZM53.2751 39.5333C53.2775 39.5895 53.2911 39.6447 53.3151 39.6957C53.339 39.7466 53.3729 39.7923 53.4147 39.83C53.6138 39.6293 53.7948 39.4115 53.9558 39.1792C53.8845 39.1229 53.7972 39.0907 53.7065 39.0869C53.6483 39.0862 53.5907 39.0973 53.537 39.1197C53.4834 39.1421 53.4348 39.1752 53.3944 39.217C53.354 39.2588 53.3226 39.3084 53.3021 39.3628C53.2816 39.4172 53.2724 39.4752 53.2751 39.5333ZM48.3355 40.9246C48.2415 40.9245 48.1506 40.9585 48.08 41.0205C48.0093 41.0825 47.9636 41.1681 47.9515 41.2613H48.6995C48.6879 41.1714 48.6451 41.0884 48.5786 41.0269C48.512 40.9653 48.426 40.9292 48.3355 40.9246ZM44.7498 40.972C44.6691 40.9709 44.5909 41 44.5305 41.0535C44.4701 41.1069 44.4318 41.181 44.4232 41.2613H45.0765C45.0672 41.1817 45.0285 41.1085 44.9681 41.0559C44.9077 41.0034 44.8299 40.9752 44.7498 40.977V40.972ZM42.9645 40.997C42.8904 40.9958 42.8185 41.0222 42.7628 41.0711C42.707 41.1199 42.6714 41.1877 42.6627 41.2613H43.2612C43.2515 41.1894 43.2161 41.1236 43.1615 41.0759C43.107 41.0282 43.0369 41.0019 42.9645 41.0019V40.997ZM46.5302 40.9496C46.4456 40.953 46.365 40.9861 46.3025 41.0431C46.24 41.1001 46.1997 41.1774 46.1886 41.2613H46.8917C46.8785 41.1752 46.8347 41.0967 46.7682 41.0404C46.7018 40.984 46.6173 40.9536 46.5302 40.9546V40.9496ZM43.2712 28.7838C43.2707 28.7228 43.2522 28.6634 43.218 28.6129C43.1838 28.5625 43.1355 28.5232 43.0791 28.5001C43.0227 28.477 42.9608 28.4711 42.901 28.4831C42.8413 28.4951 42.7864 28.5245 42.7433 28.5676C42.7002 28.6107 42.6709 28.6656 42.6588 28.7253C42.6468 28.7851 42.6527 28.847 42.6758 28.9034C42.6989 28.9598 42.7382 29.0081 42.7886 29.0423C42.8391 29.0765 42.8985 29.0949 42.9595 29.0954C43.0008 29.0968 43.0419 29.0897 43.0804 29.0745C43.1188 29.0594 43.1537 29.0365 43.183 29.0072C43.2122 28.978 43.2351 28.9431 43.2503 28.9047C43.2654 28.8662 43.2725 28.8251 43.2712 28.7838ZM48.328 31.9829C48.252 31.9829 48.1778 32.0054 48.1147 32.0476C48.0515 32.0898 48.0023 32.1498 47.9732 32.22C47.9442 32.2901 47.9366 32.3673 47.9514 32.4418C47.9662 32.5163 48.0028 32.5847 48.0565 32.6385C48.1102 32.6922 48.1786 32.7287 48.2531 32.7435C48.3276 32.7584 48.4048 32.7508 48.4749 32.7217C48.5451 32.6926 48.6051 32.6434 48.6473 32.5803C48.6895 32.5171 48.712 32.4429 48.712 32.3669C48.7113 32.2653 48.6707 32.168 48.5988 32.0961C48.5269 32.0242 48.4296 31.9836 48.328 31.9829ZM48.328 35.5611C48.2516 35.5611 48.177 35.5839 48.1136 35.6266C48.0503 35.6692 48.0011 35.7298 47.9724 35.8006C47.9436 35.8713 47.9366 35.949 47.9523 36.0238C47.9679 36.0985 48.0055 36.1669 48.0602 36.2202C48.1149 36.2735 48.1842 36.3092 48.2594 36.3229C48.3345 36.3366 48.412 36.3275 48.482 36.2969C48.5519 36.2663 48.6112 36.2156 48.6522 36.1511C48.6931 36.0867 48.714 36.0115 48.712 35.9351C48.7088 35.8352 48.667 35.7405 48.5954 35.6707C48.5238 35.601 48.4279 35.5617 48.328 35.5611ZM48.328 28.4047C48.2521 28.4047 48.178 28.4272 48.1149 28.4693C48.0518 28.5114 48.0026 28.5712 47.9735 28.6412C47.9443 28.7112 47.9366 28.7883 47.9512 28.8627C47.9658 28.9372 48.0021 29.0056 48.0556 29.0594C48.109 29.1132 48.1772 29.15 48.2516 29.1651C48.3259 29.1802 48.403 29.1729 48.4732 29.1442C48.5434 29.1155 48.6036 29.0667 48.6461 29.0039C48.6886 28.9411 48.7115 28.8671 48.712 28.7912C48.7113 28.6894 48.6708 28.5918 48.599 28.5195C48.5272 28.4473 48.4299 28.406 48.328 28.4047ZM48.712 34.1697C48.7154 34.0939 48.6962 34.0188 48.6569 33.9538C48.6175 33.8889 48.5599 33.837 48.4911 33.8049C48.4223 33.7727 48.3456 33.7616 48.2705 33.7731C48.1955 33.7845 48.1255 33.8179 48.0694 33.8691C48.0134 33.9203 47.9738 33.987 47.9556 34.0607C47.9374 34.1344 47.9414 34.2118 47.9672 34.2832C47.993 34.3546 48.0394 34.4167 48.1005 34.4618C48.1616 34.5068 48.2347 34.5327 48.3105 34.5363C48.4122 34.5403 48.5114 34.5041 48.5866 34.4355C48.6618 34.3669 48.7068 34.2714 48.712 34.1697ZM50.1133 34.5587C50.1933 34.5597 50.2718 34.5369 50.3388 34.4932C50.4059 34.4496 50.4584 34.387 50.4898 34.3134C50.5212 34.2398 50.5301 34.1586 50.5153 34.08C50.5005 34.0014 50.4626 33.9289 50.4066 33.8718C50.3506 33.8147 50.2788 33.7756 50.2005 33.7593C50.1222 33.743 50.0408 33.7504 49.9666 33.7804C49.8925 33.8104 49.8289 33.8618 49.784 33.928C49.7391 33.9942 49.7149 34.0723 49.7144 34.1523C49.7156 34.2584 49.7578 34.3599 49.8322 34.4357C49.9065 34.5114 50.0073 34.5555 50.1133 34.5587ZM50.1133 29.1902C50.1933 29.1907 50.2717 29.1674 50.3384 29.1233C50.4052 29.0792 50.4574 29.0163 50.4883 28.9426C50.5193 28.8688 50.5276 28.7875 50.5123 28.709C50.497 28.6305 50.4587 28.5583 50.4023 28.5015C50.346 28.4448 50.274 28.406 50.1956 28.3903C50.1171 28.3745 50.0358 28.3823 49.9618 28.4128C49.8879 28.4433 49.8246 28.4951 49.7801 28.5616C49.7356 28.6281 49.7119 28.7062 49.7119 28.7862C49.7132 28.893 49.7562 28.995 49.8316 29.0705C49.9071 29.1459 50.0091 29.1889 50.1158 29.1902H50.1133ZM50.1133 32.7709C50.1939 32.7704 50.2726 32.7459 50.3392 32.7006C50.4059 32.6553 50.4576 32.5912 50.4877 32.5165C50.5179 32.4417 50.5251 32.3597 50.5085 32.2808C50.4919 32.202 50.4523 32.1298 50.3946 32.0735C50.3369 32.0172 50.2638 31.9794 50.1845 31.9647C50.1053 31.9501 50.0235 31.9594 49.9495 31.9914C49.8755 32.0234 49.8127 32.0766 49.7691 32.1444C49.7254 32.2121 49.7029 32.2913 49.7044 32.3719C49.7083 32.4799 49.7543 32.5822 49.8326 32.6567C49.9109 32.7313 50.0152 32.7722 50.1233 32.7709H50.1133ZM50.1133 30.9805C50.1932 30.9815 50.2716 30.9588 50.3386 30.9152C50.4055 30.8717 50.4581 30.8092 50.4896 30.7358C50.521 30.6624 50.53 30.5812 50.5154 30.5027C50.5008 30.4242 50.4632 30.3517 50.4074 30.2945C50.3516 30.2373 50.2801 30.198 50.202 30.1814C50.1238 30.1649 50.0425 30.1719 49.9683 30.2015C49.8942 30.2312 49.8304 30.2822 49.7852 30.348C49.74 30.4139 49.7154 30.4917 49.7144 30.5716C49.715 30.6782 49.7569 30.7803 49.8313 30.8566C49.9057 30.9329 50.0068 30.9773 50.1133 30.9805ZM48.3255 30.2026C48.2503 30.2035 48.177 30.2268 48.1149 30.2693C48.0528 30.3118 48.0047 30.3717 47.9766 30.4415C47.9485 30.5113 47.9416 30.5878 47.9569 30.6615C47.9722 30.7352 48.0089 30.8027 48.0625 30.8555C48.116 30.9084 48.184 30.9442 48.2579 30.9586C48.3317 30.9729 48.4082 30.965 48.4776 30.936C48.547 30.907 48.6063 30.8581 48.648 30.7955C48.6897 30.7329 48.712 30.6593 48.712 30.5841C48.7107 30.4824 48.6694 30.3854 48.597 30.314C48.5247 30.2426 48.4271 30.2026 48.3255 30.2026ZM46.5401 35.5885C46.4699 35.591 46.4019 35.6142 46.3448 35.6552C46.2877 35.6962 46.244 35.7531 46.2191 35.8189C46.1943 35.8846 46.1894 35.9563 46.2052 36.0248C46.2209 36.0933 46.2566 36.1556 46.3076 36.2039C46.3587 36.2522 46.4229 36.2844 46.4922 36.2963C46.5615 36.3082 46.6327 36.2994 46.697 36.2709C46.7613 36.2425 46.8157 36.1957 46.8535 36.1364C46.8912 36.077 46.9106 36.0079 46.9092 35.9376C46.9079 35.8905 46.8973 35.844 46.8781 35.801C46.8588 35.7579 46.8313 35.719 46.797 35.6866C46.7627 35.6542 46.7224 35.6288 46.6783 35.612C46.6343 35.5952 46.5873 35.5872 46.5401 35.5885ZM46.5401 30.22C46.4702 30.2225 46.4025 30.2454 46.3456 30.2861C46.2886 30.3267 46.2448 30.3832 46.2197 30.4485C46.1946 30.5139 46.1893 30.5852 46.2045 30.6535C46.2196 30.7218 46.2545 30.7842 46.3048 30.8328C46.3552 30.8814 46.4187 30.9142 46.4875 30.9269C46.5563 30.9397 46.6274 30.932 46.6918 30.9047C46.7562 30.8773 46.8112 30.8317 46.8498 30.7733C46.8885 30.715 46.9091 30.6466 46.9092 30.5766C46.9079 30.482 46.8696 30.3917 46.8024 30.325C46.7353 30.2584 46.6447 30.2207 46.5501 30.22H46.5401ZM46.5252 33.7982C46.4561 33.8035 46.39 33.8289 46.3351 33.8712C46.2802 33.9134 46.2388 33.9708 46.2159 34.0363C46.1931 34.1017 46.1898 34.1724 46.2065 34.2396C46.2233 34.3069 46.2592 34.3678 46.31 34.415C46.3608 34.4622 46.4242 34.4935 46.4925 34.5052C46.5608 34.5169 46.6311 34.5084 46.6947 34.4808C46.7582 34.4532 46.8124 34.4076 46.8505 34.3497C46.8886 34.2918 46.909 34.2241 46.9092 34.1548C46.9089 34.1065 46.8989 34.0589 46.8798 34.0146C46.8606 33.9703 46.8328 33.9303 46.7979 33.8971C46.763 33.8638 46.7217 33.8379 46.6766 33.8209C46.6314 33.8039 46.5833 33.7962 46.5352 33.7982H46.5252ZM48.3205 37.3514C48.2453 37.3514 48.1717 37.3737 48.1091 37.4154C48.0465 37.4571 47.9976 37.5164 47.9685 37.5858C47.9395 37.6552 47.9317 37.7317 47.946 37.8056C47.9603 37.8794 47.9962 37.9474 48.049 38.001C48.1019 38.0545 48.1694 38.0912 48.2431 38.1065C48.3167 38.1218 48.3933 38.1149 48.4631 38.0868C48.5329 38.0587 48.5928 38.0106 48.6353 37.9485C48.6778 37.8864 48.701 37.8132 48.702 37.7379C48.7021 37.638 48.6634 37.5419 48.5942 37.4698C48.5249 37.3977 48.4304 37.3553 48.3305 37.3514H48.3205ZM48.3205 39.1393C48.244 39.1383 48.169 39.1602 48.1051 39.2021C48.0411 39.244 47.9911 39.3041 47.9615 39.3746C47.9319 39.4451 47.9241 39.5229 47.9389 39.5979C47.9538 39.6729 47.9907 39.7418 48.045 39.7957C48.0992 39.8496 48.1683 39.886 48.2434 39.9004C48.3186 39.9148 48.3962 39.9064 48.4666 39.8763C48.5369 39.8463 48.5966 39.7959 48.6381 39.7317C48.6796 39.6674 48.701 39.5923 48.6995 39.5158C48.696 39.4188 48.6565 39.3265 48.5888 39.2569C48.5211 39.1873 48.4299 39.1454 48.333 39.1393H48.3205ZM46.5252 26.6418C46.4561 26.6472 46.39 26.6725 46.3351 26.7148C46.2802 26.7571 46.2388 26.8144 46.2159 26.8799C46.1931 26.9453 46.1898 27.016 46.2065 27.0833C46.2233 27.1505 46.2592 27.2115 46.31 27.2586C46.3608 27.3058 46.4242 27.3371 46.4925 27.3488C46.5608 27.3605 46.6311 27.352 46.6947 27.3244C46.7582 27.2968 46.8124 27.2513 46.8505 27.1934C46.8886 27.1355 46.909 27.0677 46.9092 26.9984C46.9085 26.9505 46.8984 26.9032 46.8793 26.8592C46.8602 26.8153 46.8326 26.7756 46.798 26.7424C46.7634 26.7092 46.7226 26.6832 46.6779 26.666C46.6332 26.6487 46.5855 26.6405 46.5376 26.6418H46.5252ZM46.5252 28.4322C46.4542 28.4307 46.3843 28.4505 46.3246 28.4889C46.2648 28.5274 46.218 28.5829 46.19 28.6482C46.162 28.7135 46.1542 28.7857 46.1675 28.8555C46.1808 28.9253 46.2146 28.9895 46.2647 29.0399C46.3148 29.0903 46.3787 29.1246 46.4484 29.1384C46.5181 29.1522 46.5904 29.1449 46.6559 29.1174C46.7214 29.0899 46.7772 29.0434 46.8161 28.984C46.855 28.9245 46.8753 28.8548 46.8743 28.7838C46.8728 28.6952 46.8386 28.6103 46.7783 28.5454C46.718 28.4805 46.6359 28.4402 46.5476 28.4322H46.5252ZM46.5127 32.0104C46.4443 32.0181 46.3796 32.0454 46.3264 32.0891C46.2732 32.1327 46.2338 32.1909 46.2129 32.2564C46.192 32.322 46.1905 32.3923 46.2086 32.4587C46.2268 32.5251 46.2638 32.5848 46.3151 32.6306C46.3664 32.6765 46.4299 32.7065 46.498 32.717C46.566 32.7276 46.6356 32.7182 46.6984 32.6901C46.7612 32.6619 46.8146 32.6162 46.852 32.5584C46.8894 32.5006 46.9092 32.4333 46.9092 32.3644C46.9086 32.3164 46.8983 32.269 46.879 32.225C46.8598 32.181 46.8319 32.1414 46.797 32.1083C46.7621 32.0753 46.721 32.0497 46.676 32.0328C46.631 32.016 46.5831 32.0083 46.5352 32.0104H46.5127ZM53.6815 34.5687C53.7372 34.5669 53.792 34.5541 53.8427 34.5312C53.8935 34.5082 53.9392 34.4755 53.9773 34.4348C54.0154 34.3942 54.0451 34.3465 54.0647 34.2943C54.0843 34.2422 54.0935 34.1867 54.0917 34.1311C54.0899 34.0754 54.0772 34.0206 54.0542 33.9699C54.0312 33.9192 53.9985 33.8734 53.9579 33.8354C53.9172 33.7973 53.8695 33.7676 53.8174 33.7479C53.7653 33.7283 53.7098 33.7191 53.6541 33.7209C53.599 33.7228 53.5448 33.7357 53.4947 33.7587C53.4445 33.7818 53.3995 33.8145 53.3621 33.8551C53.3248 33.8957 53.2959 33.9433 53.2771 33.9952C53.2583 34.0471 53.25 34.1022 53.2527 34.1573C53.2542 34.2143 53.2673 34.2704 53.291 34.3222C53.3147 34.374 53.3487 34.4205 53.3908 34.459C53.433 34.4974 53.4824 34.5269 53.5362 34.5457C53.59 34.5646 53.6471 34.5724 53.704 34.5687H53.6815ZM53.6491 35.5087C53.5663 35.5136 53.4868 35.5427 53.4203 35.5924C53.3539 35.642 53.3034 35.7101 53.2753 35.7881C53.2472 35.8662 53.2426 35.9508 53.262 36.0314C53.2815 36.112 53.3242 36.1852 53.3849 36.2418C53.4455 36.2984 53.5214 36.336 53.6032 36.3498C53.685 36.3637 53.7691 36.3533 53.845 36.3198C53.9209 36.2864 53.9853 36.2314 54.0303 36.1617C54.0753 36.092 54.0988 36.0106 54.098 35.9277C54.0976 35.8721 54.0863 35.8172 54.0647 35.766C54.0431 35.7148 54.0115 35.6684 53.9719 35.6295C53.9323 35.5906 53.8853 35.5599 53.8338 35.5391C53.7823 35.5184 53.7271 35.5081 53.6716 35.5087H53.6491ZM53.6865 37.2991C53.6024 37.2966 53.5195 37.3192 53.4483 37.3641C53.3771 37.4089 53.3208 37.4739 53.2867 37.5508C53.2525 37.6277 53.242 37.7131 53.2566 37.7959C53.2711 37.8788 53.3099 37.9555 53.3682 38.0162C53.4264 38.077 53.5015 38.119 53.5837 38.1369C53.6659 38.1549 53.7516 38.148 53.8298 38.117C53.9081 38.0861 53.9754 38.0326 54.0231 37.9633C54.0709 37.894 54.0969 37.8121 54.098 37.728C54.1002 37.6203 54.0611 37.5159 53.9888 37.4361C53.9165 37.3564 53.8163 37.3073 53.709 37.2991H53.6865ZM51.8862 30.1602C51.7775 30.1588 51.6727 30.2006 51.5947 30.2763C51.5167 30.3519 51.4718 30.4554 51.4698 30.5641C51.4643 30.6212 51.4707 30.6787 51.4885 30.7332C51.5063 30.7876 51.5351 30.8378 51.5732 30.8806C51.6113 30.9234 51.6578 30.9579 51.7098 30.9819C51.7619 31.0059 51.8183 31.019 51.8756 31.0202C51.9329 31.0214 51.9898 31.0107 52.0428 30.9889C52.0957 30.9671 52.1437 30.9346 52.1835 30.8935C52.2234 30.8523 52.2543 30.8034 52.2744 30.7497C52.2944 30.696 52.3032 30.6388 52.3001 30.5816C52.3022 30.4743 52.2626 30.3704 52.1896 30.2918C52.1165 30.2131 52.0158 30.166 51.9087 30.1602H51.8862ZM53.6815 29.1977C53.7664 29.1971 53.8492 29.1713 53.9192 29.1234C53.9893 29.0756 54.0435 29.0079 54.0749 28.9291C54.1063 28.8503 54.1135 28.7639 54.0955 28.6809C54.0775 28.598 54.0352 28.5223 53.974 28.4636C53.9127 28.4049 53.8354 28.3657 53.7518 28.3512C53.6682 28.3367 53.5821 28.3474 53.5047 28.3821C53.4272 28.4167 53.3619 28.4737 53.317 28.5457C53.2721 28.6177 53.2497 28.7014 53.2527 28.7862C53.2529 28.844 53.2649 28.9011 53.2881 28.954C53.3113 29.0068 53.3451 29.0544 53.3874 29.0937C53.4297 29.133 53.4796 29.1631 53.5341 29.1823C53.5886 29.2015 53.6464 29.2093 53.704 29.2052L53.6815 29.1977ZM50.1059 36.3491C50.1866 36.352 50.2664 36.3309 50.3351 36.2883C50.4037 36.2457 50.4581 36.1836 50.4913 36.1099C50.5245 36.0362 50.535 35.9544 50.5215 35.8747C50.5079 35.7951 50.4709 35.7213 50.4152 35.6627C50.3595 35.6042 50.2877 35.5636 50.2088 35.5461C50.1299 35.5286 50.0476 35.535 49.9724 35.5645C49.8972 35.594 49.8324 35.6453 49.7865 35.7117C49.7405 35.7782 49.7154 35.8568 49.7144 35.9376C49.7143 36.0434 49.7549 36.1451 49.8277 36.2217C49.9006 36.2983 50.0002 36.3439 50.1059 36.3491ZM51.9112 28.3698C51.8289 28.3689 51.7482 28.3923 51.6793 28.4371C51.6103 28.4819 51.5562 28.5462 51.5237 28.6217C51.4912 28.6973 51.4818 28.7808 51.4967 28.8617C51.5116 28.9426 51.5501 29.0172 51.6074 29.0762C51.6647 29.1353 51.7382 29.176 51.8186 29.1933C51.899 29.2106 51.9827 29.2037 52.0592 29.1735C52.1357 29.1433 52.2016 29.0911 52.2484 29.0235C52.2953 28.9559 52.3211 28.876 52.3226 28.7937C52.3243 28.7388 52.3148 28.684 52.2949 28.6328C52.2749 28.5816 52.2448 28.5349 52.2064 28.4956C52.168 28.4562 52.1221 28.425 52.0714 28.4039C52.0206 28.3827 51.9661 28.372 51.9112 28.3723V28.3698ZM53.6766 32.7734C53.7607 32.7778 53.8442 32.757 53.9165 32.7138C53.9888 32.6705 54.0465 32.6067 54.0824 32.5305C54.1182 32.4543 54.1306 32.3691 54.1178 32.2859C54.1051 32.2026 54.0678 32.125 54.0108 32.0631C53.9537 32.0011 53.8795 31.9575 53.7976 31.9378C53.7157 31.9182 53.6298 31.9234 53.5509 31.9528C53.4719 31.9822 53.4035 32.0344 53.3544 32.1029C53.3053 32.1713 53.2777 32.2528 53.2751 32.337C53.2704 32.4484 53.31 32.5571 53.3852 32.6393C53.4604 32.7216 53.5652 32.7707 53.6766 32.7759V32.7734ZM53.714 30.9855C53.8264 30.9832 53.9333 30.9363 54.0111 30.8552C54.089 30.7741 54.1314 30.6653 54.1291 30.5529C54.1268 30.4405 54.0799 30.3336 53.9988 30.2557C53.9177 30.1779 53.8089 30.1354 53.6965 30.1377C53.6413 30.1374 53.5865 30.148 53.5354 30.1689C53.4843 30.1898 53.4378 30.2206 53.3987 30.2595C53.3595 30.2985 53.3284 30.3448 53.3072 30.3958C53.286 30.4467 53.2751 30.5014 53.2751 30.5566C53.2741 30.6142 53.2847 30.6714 53.3065 30.7247C53.3283 30.778 53.3607 30.8263 53.4018 30.8667C53.4428 30.9071 53.4917 30.9386 53.5454 30.9595C53.5991 30.9804 53.6564 30.9901 53.714 30.988V30.9855ZM50.1133 37.3265C50.0335 37.3275 49.9557 37.3522 49.8898 37.3974C49.8239 37.4426 49.7729 37.5063 49.7433 37.5805C49.7136 37.6547 49.7066 37.736 49.7232 37.8141C49.7397 37.8923 49.7791 37.9638 49.8363 38.0196C49.8935 38.0754 49.9659 38.1129 50.0444 38.1276C50.123 38.1422 50.2041 38.1332 50.2775 38.1017C50.3509 38.0702 50.4134 38.0177 50.457 37.9507C50.5005 37.8837 50.5233 37.8054 50.5223 37.7255C50.519 37.6192 50.4745 37.5183 50.3982 37.4443C50.3218 37.3703 50.2197 37.329 50.1133 37.329V37.3265ZM50.1133 39.1168C50.0066 39.1162 49.904 39.1578 49.8278 39.2325C49.7517 39.3073 49.7082 39.4091 49.7069 39.5158C49.7059 39.5958 49.7287 39.6743 49.7724 39.7413C49.816 39.8083 49.8786 39.8609 49.9522 39.8923C50.0258 39.9237 50.107 39.9326 50.1856 39.9177C50.2642 39.9029 50.3367 39.8651 50.3938 39.8091C50.4509 39.753 50.49 39.6813 50.5063 39.603C50.5226 39.5246 50.5152 39.4432 50.4852 39.3691C50.4552 39.295 50.4038 39.2314 50.3376 39.1865C50.2714 39.1416 50.1933 39.1173 50.1133 39.1168ZM51.9037 39.1044C51.8485 39.103 51.7936 39.1128 51.7424 39.1333C51.6911 39.1537 51.6445 39.1843 51.6053 39.2232C51.5662 39.2621 51.5353 39.3085 51.5146 39.3597C51.4939 39.4108 51.4837 39.4656 51.4848 39.5208C51.4837 39.5756 51.4938 39.6301 51.5144 39.681C51.535 39.7318 51.5657 39.778 51.6046 39.8167C51.6435 39.8553 51.6898 39.8857 51.7408 39.906C51.7918 39.9263 51.8463 39.9361 51.9012 39.9347C52.0057 39.9266 52.1034 39.8794 52.1746 39.8024C52.2458 39.7254 52.2854 39.6244 52.2854 39.5195C52.2854 39.4147 52.2458 39.3137 52.1746 39.2367C52.1034 39.1597 52.0057 39.1125 51.9012 39.1044H51.9037ZM51.9037 35.5262C51.8212 35.5267 51.7408 35.5517 51.6725 35.5979C51.6043 35.6442 51.5513 35.7097 51.5203 35.7862C51.4893 35.8626 51.4817 35.9465 51.4985 36.0272C51.5152 36.108 51.5556 36.1819 51.6144 36.2397C51.6732 36.2975 51.7479 36.3365 51.8289 36.3518C51.91 36.3671 51.9937 36.358 52.0696 36.3256C52.1454 36.2933 52.21 36.2391 52.255 36.1701C52.3001 36.101 52.3236 36.0201 52.3226 35.9376C52.3226 35.8305 52.2805 35.7276 52.2055 35.6511C52.1304 35.5746 52.0283 35.5307 51.9211 35.5287L51.9037 35.5262ZM51.9037 33.7359C51.8208 33.7349 51.7395 33.7587 51.6702 33.8041C51.6009 33.8496 51.5468 33.9148 51.5147 33.9912C51.4827 34.0676 51.4742 34.1519 51.4903 34.2332C51.5064 34.3145 51.5464 34.3892 51.6052 34.4476C51.664 34.506 51.7389 34.5456 51.8203 34.5612C51.9017 34.5768 51.9859 34.5678 52.0621 34.5353C52.1384 34.5028 52.2032 34.4482 52.2482 34.3787C52.2933 34.3091 52.3166 34.2277 52.3151 34.1448C52.3138 34.0378 52.2709 33.9356 52.1955 33.8597C52.1201 33.7838 52.0181 33.7403 51.9112 33.7384L51.9037 33.7359ZM51.9037 37.3165C51.8486 37.3161 51.794 37.327 51.7432 37.3483C51.6924 37.3697 51.6465 37.4011 51.6083 37.4408C51.57 37.4804 51.5403 37.5274 51.5207 37.5789C51.5012 37.6305 51.4924 37.6854 51.4947 37.7404C51.4962 37.8228 51.5221 37.9028 51.5691 37.9705C51.6161 38.0381 51.6821 38.0903 51.7587 38.1204C51.8353 38.1506 51.9192 38.1573 51.9997 38.1398C52.0801 38.1223 52.1536 38.0813 52.2108 38.022C52.268 37.9627 52.3063 37.8878 52.3209 37.8068C52.3355 37.7257 52.3258 37.6422 52.2929 37.5667C52.26 37.4912 52.2055 37.4271 52.1362 37.3826C52.0669 37.3381 51.986 37.3151 51.9037 37.3165ZM51.9037 31.948C51.8214 31.9475 51.7409 31.9714 51.6722 32.0166C51.6035 32.0619 51.5497 32.1265 51.5177 32.2022C51.4857 32.278 51.4768 32.3615 51.4921 32.4423C51.5075 32.5231 51.5465 32.5975 51.6041 32.6562C51.6618 32.7149 51.7355 32.7552 51.816 32.772C51.8965 32.7889 51.9802 32.7815 52.0565 32.7508C52.1328 32.7201 52.1984 32.6675 52.2448 32.5996C52.2913 32.5318 52.3166 32.4517 52.3176 32.3694C52.3193 32.3147 52.3099 32.2602 52.2901 32.2091C52.2703 32.158 52.2405 32.1115 52.2023 32.0722C52.1642 32.0329 52.1185 32.0016 52.0681 31.9803C52.0176 31.959 51.9634 31.948 51.9087 31.948H51.9037ZM39.3913 32.1051C39.3419 32.1051 39.2937 32.1197 39.2527 32.1471C39.2117 32.1745 39.1798 32.2135 39.1609 32.259C39.142 32.3046 39.1371 32.3547 39.1467 32.4031C39.1563 32.4515 39.1801 32.4959 39.2149 32.5308C39.2498 32.5656 39.2942 32.5894 39.3426 32.599C39.391 32.6086 39.4411 32.6037 39.4867 32.5848C39.5322 32.566 39.5712 32.534 39.5986 32.493C39.626 32.452 39.6406 32.4038 39.6406 32.3545C39.64 32.2896 39.6141 32.2276 39.5685 32.1815C39.5229 32.1354 39.4611 32.1089 39.3962 32.1076L39.3913 32.1051ZM39.3688 26.7366C39.3205 26.7405 39.2744 26.7583 39.2361 26.788C39.1978 26.8176 39.169 26.8578 39.1532 26.9035C39.1373 26.9493 39.1351 26.9987 39.1469 27.0457C39.1586 27.0927 39.1838 27.1352 39.2194 27.1681C39.2549 27.201 39.2992 27.2229 39.347 27.231C39.3947 27.2391 39.4438 27.2331 39.4882 27.2138C39.5326 27.1945 39.5705 27.1626 39.5971 27.1222C39.6237 27.0817 39.638 27.0344 39.6381 26.9859C39.6378 26.9521 39.6307 26.9187 39.6171 26.8877C39.6035 26.8567 39.5837 26.8288 39.559 26.8057C39.5342 26.7827 39.5051 26.7648 39.4732 26.7534C39.4414 26.7419 39.4076 26.737 39.3738 26.7391L39.3688 26.7366ZM39.3688 30.3148C39.3027 30.3148 39.2393 30.341 39.1925 30.3878C39.1457 30.4346 39.1195 30.498 39.1195 30.5641C39.1195 30.6302 39.1457 30.6937 39.1925 30.7404C39.2393 30.7872 39.3027 30.8135 39.3688 30.8135C39.4373 30.8135 39.5029 30.7863 39.5513 30.7379C39.5997 30.6895 39.6269 30.6238 39.6269 30.5554C39.6269 30.4869 39.5997 30.4213 39.5513 30.3729C39.5029 30.3245 39.4373 30.2973 39.3688 30.2973V30.3148ZM39.3688 28.5269C39.3004 28.5269 39.2347 28.5541 39.1863 28.6025C39.1379 28.6509 39.1107 28.7166 39.1107 28.785C39.1107 28.8534 39.1379 28.9191 39.1863 28.9675C39.2347 29.0159 39.3004 29.0431 39.3688 29.0431C39.4031 29.0432 39.437 29.0362 39.4685 29.0226C39.4999 29.009 39.5282 28.989 39.5516 28.964C39.575 28.939 39.593 28.9094 39.6044 28.8771C39.6159 28.8448 39.6206 28.8105 39.6182 28.7763C39.6177 28.7135 39.5936 28.6532 39.5506 28.6074C39.5076 28.5617 39.4489 28.5338 39.3863 28.5294L39.3688 28.5269ZM37.5959 33.9428C37.5516 33.9428 37.5082 33.956 37.4713 33.9806C37.4344 34.0053 37.4056 34.0403 37.3886 34.0814C37.3716 34.1224 37.3672 34.1675 37.3758 34.211C37.3845 34.2545 37.4059 34.2945 37.4373 34.3259C37.4686 34.3573 37.5086 34.3787 37.5522 34.3873C37.5957 34.396 37.6408 34.3916 37.6818 34.3746C37.7228 34.3576 37.7579 34.3288 37.7825 34.2919C37.8072 34.255 37.8204 34.2116 37.8204 34.1672C37.8214 34.1375 37.8163 34.1078 37.8054 34.0801C37.7945 34.0524 37.778 34.0273 37.7569 34.0062C37.7359 33.9852 37.7107 33.9687 37.683 33.9578C37.6553 33.9469 37.6257 33.9418 37.5959 33.9428ZM41.4534 35.9775C41.4596 35.9219 41.4491 35.8658 41.4232 35.8162C41.3974 35.7666 41.3574 35.7258 41.3083 35.699C41.2592 35.6722 41.2033 35.6607 41.1476 35.6658C41.0919 35.6709 41.039 35.6925 40.9956 35.7277C40.9522 35.763 40.9203 35.8104 40.9039 35.8639C40.8876 35.9173 40.8875 35.9745 40.9037 36.028C40.9199 36.0815 40.9516 36.129 40.9949 36.1644C41.0382 36.1998 41.091 36.2216 41.1467 36.2269C41.1843 36.2314 41.2225 36.228 41.2587 36.2171C41.295 36.2061 41.3286 36.1877 41.3574 36.1631C41.3862 36.1385 41.4096 36.1082 41.4261 36.0742C41.4427 36.0401 41.4519 36.0029 41.4534 35.9651V35.9775ZM39.3913 33.9079C39.3419 33.9079 39.2937 33.9225 39.2527 33.9499C39.2117 33.9773 39.1798 34.0163 39.1609 34.0618C39.142 34.1074 39.1371 34.1575 39.1467 34.2059C39.1563 34.2543 39.1801 34.2987 39.2149 34.3336C39.2498 34.3685 39.2942 34.3922 39.3426 34.4018C39.391 34.4114 39.4411 34.4065 39.4867 34.3876C39.5322 34.3688 39.5712 34.3368 39.5986 34.2958C39.626 34.2548 39.6406 34.2066 39.6406 34.1573C39.6423 34.1235 39.6371 34.0897 39.6253 34.058C39.6136 34.0263 39.5955 33.9973 39.5721 33.9728C39.5488 33.9483 39.5207 33.9288 39.4897 33.9155C39.4586 33.9022 39.4251 33.8954 39.3913 33.8954V33.9079ZM41.1866 37.4637C41.1306 37.4612 41.0752 37.4755 41.0273 37.5047C40.9795 37.5339 40.9415 37.5767 40.9181 37.6276C40.8947 37.6785 40.8871 37.7352 40.8961 37.7905C40.9051 37.8458 40.9304 37.8972 40.9688 37.938C41.0071 37.9789 41.0568 38.0074 41.1114 38.0198C41.1661 38.0323 41.2232 38.0282 41.2754 38.0081C41.3277 37.9879 41.3728 37.9527 41.405 37.9068C41.4371 37.8609 41.4548 37.8064 41.4559 37.7504C41.459 37.7128 41.4543 37.675 41.4423 37.6393C41.4302 37.6036 41.411 37.5707 41.3858 37.5427C41.3605 37.5147 41.3299 37.4921 41.2956 37.4764C41.2614 37.4607 41.2243 37.4521 41.1866 37.4512V37.4637ZM41.1866 33.8855C41.1204 33.8947 41.0596 33.9273 41.0151 33.9772C40.9707 34.0272 40.9455 34.0913 40.944 34.1582C40.9425 34.225 40.9648 34.2903 41.007 34.3422C41.0491 34.3941 41.1084 34.4293 41.1741 34.4415C41.2118 34.4429 41.2494 34.4366 41.2846 34.423C41.3199 34.4094 41.3519 34.3888 41.379 34.3625C41.406 34.3361 41.4274 34.3046 41.4419 34.2698C41.4564 34.2349 41.4637 34.1975 41.4634 34.1598C41.4652 34.1214 41.4589 34.0831 41.445 34.0473C41.431 34.0116 41.4098 33.9791 41.3825 33.9521C41.3552 33.925 41.3226 33.904 41.2867 33.8904C41.2508 33.8768 41.2125 33.8709 41.1741 33.873L41.1866 33.8855ZM41.1866 39.254C41.1501 39.2533 41.1138 39.26 41.0799 39.2737C41.046 39.2873 41.0152 39.3077 40.9894 39.3335C40.9635 39.3594 40.9432 39.3902 40.9295 39.4241C40.9158 39.4579 40.9091 39.4942 40.9098 39.5308C40.9084 39.5686 40.9148 39.6063 40.9286 39.6415C40.9423 39.6768 40.9632 39.7088 40.9898 39.7357C41.0165 39.7626 41.0483 39.7837 41.0835 39.7978C41.1186 39.8119 41.1562 39.8186 41.1941 39.8175C41.2681 39.8175 41.3392 39.7881 41.3915 39.7357C41.4439 39.6833 41.4733 39.6123 41.4733 39.5382C41.4764 39.4983 41.4707 39.4582 41.4567 39.4206C41.4427 39.3831 41.4207 39.349 41.3922 39.3208C41.3638 39.2926 41.3296 39.2709 41.2919 39.2572C41.2542 39.2435 41.214 39.2382 41.1741 39.2415L41.1866 39.254ZM37.6009 30.3522C37.5566 30.3512 37.5129 30.3634 37.4755 30.3872C37.438 30.4111 37.4085 30.4455 37.3906 30.4861C37.3727 30.5267 37.3673 30.5717 37.375 30.6154C37.3827 30.6591 37.4031 30.6996 37.4338 30.7317C37.4645 30.7637 37.504 30.786 37.5473 30.7956C37.5906 30.8052 37.6358 30.8018 37.6772 30.7857C37.7186 30.7697 37.7543 30.7417 37.7797 30.7054C37.8052 30.669 37.8194 30.6259 37.8204 30.5816C37.8217 30.5519 37.817 30.5223 37.8066 30.4945C37.7962 30.4668 37.7802 30.4414 37.7597 30.4199C37.7392 30.3985 37.7146 30.3814 37.6873 30.3698C37.66 30.3581 37.6306 30.3521 37.6009 30.3522ZM37.6009 28.5618C37.5566 28.5618 37.5134 28.5749 37.4765 28.5995C37.4397 28.624 37.4109 28.6589 37.3938 28.6998C37.3768 28.7407 37.3722 28.7857 37.3807 28.8291C37.3891 28.8726 37.4102 28.9126 37.4414 28.9441C37.4725 28.9755 37.5123 28.9971 37.5556 29.006C37.599 29.015 37.644 29.0109 37.6851 28.9943C37.7261 28.9777 37.7614 28.9493 37.7863 28.9127C37.8113 28.8762 37.8248 28.833 37.8253 28.7887C37.8268 28.7583 37.8218 28.728 37.8108 28.6996C37.7997 28.6713 37.7828 28.6456 37.7612 28.6242C37.7396 28.6028 37.7137 28.5862 37.6852 28.5754C37.6567 28.5647 37.6263 28.56 37.5959 28.5618H37.6009ZM37.6009 32.14C37.5558 32.1395 37.5116 32.1525 37.4739 32.1772C37.4362 32.202 37.4068 32.2374 37.3893 32.2789C37.3718 32.3205 37.3671 32.3663 37.3758 32.4106C37.3845 32.4548 37.4061 32.4955 37.438 32.5274C37.4699 32.5592 37.5105 32.5809 37.5548 32.5896C37.599 32.5983 37.6449 32.5936 37.6864 32.5761C37.728 32.5586 37.7634 32.5291 37.7881 32.4914C37.8129 32.4537 37.8258 32.4095 37.8253 32.3644C37.8261 32.3343 37.8206 32.3044 37.8092 32.2765C37.7979 32.2487 37.7809 32.2234 37.7594 32.2024C37.7379 32.1813 37.7123 32.1649 37.6842 32.1542C37.656 32.1435 37.626 32.1386 37.5959 32.14H37.6009ZM46.5451 37.3764C46.4748 37.3764 46.4061 37.3972 46.3476 37.4361C46.289 37.4751 46.2433 37.5305 46.2162 37.5954C46.1891 37.6602 46.1817 37.7317 46.1951 37.8007C46.2084 37.8697 46.2419 37.9333 46.2913 37.9833C46.3407 38.0334 46.4037 38.0677 46.4726 38.0821C46.5414 38.0964 46.6129 38.09 46.6782 38.0638C46.7434 38.0376 46.7994 37.9926 46.8392 37.9347C46.879 37.8767 46.9007 37.8082 46.9017 37.7379C46.9017 37.642 46.8636 37.5501 46.7958 37.4823C46.728 37.4145 46.636 37.3764 46.5401 37.3764H46.5451ZM39.3863 37.4761C39.3201 37.4761 39.2567 37.5024 39.21 37.5492C39.1632 37.5959 39.1369 37.6593 39.1369 37.7255C39.1369 37.7748 39.1515 37.823 39.1789 37.864C39.2063 37.905 39.2453 37.937 39.2909 37.9558C39.3364 37.9747 39.3866 37.9797 39.4349 37.97C39.4833 37.9604 39.5277 37.9367 39.5626 37.9018C39.5975 37.8669 39.6212 37.8225 39.6308 37.7741C39.6405 37.7257 39.6355 37.6756 39.6166 37.63C39.5978 37.5845 39.5658 37.5455 39.5248 37.5181C39.4838 37.4907 39.4356 37.4761 39.3863 37.4761ZM39.3863 35.6858C39.3378 35.6892 39.2915 35.7066 39.2528 35.736C39.2142 35.7654 39.1849 35.8054 39.1687 35.8512C39.1525 35.8969 39.15 35.9464 39.1615 35.9936C39.173 36.0408 39.198 36.0835 39.2335 36.1167C39.2689 36.1498 39.3133 36.1719 39.3611 36.1802C39.409 36.1885 39.4582 36.1826 39.5028 36.1634C39.5473 36.1441 39.5853 36.1122 39.612 36.0717C39.6387 36.0311 39.653 35.9837 39.6531 35.9351C39.6529 35.9002 39.6454 35.8656 39.6311 35.8337C39.6167 35.8018 39.5958 35.7733 39.5697 35.75C39.5436 35.7267 39.5129 35.7092 39.4796 35.6986C39.4462 35.6879 39.4111 35.6844 39.3763 35.6883L39.3863 35.6858ZM39.3863 39.264C39.3377 39.2669 39.291 39.2839 39.2521 39.3131C39.2131 39.3422 39.1834 39.3821 39.1668 39.4278C39.1502 39.4735 39.1474 39.5231 39.1586 39.5705C39.1699 39.6178 39.1947 39.6608 39.2301 39.6942C39.2655 39.7276 39.3099 39.7499 39.3578 39.7584C39.4057 39.7669 39.4551 39.7611 39.4998 39.7419C39.5445 39.7227 39.5826 39.6908 39.6094 39.6502C39.6362 39.6095 39.6505 39.562 39.6506 39.5133C39.6507 39.4786 39.6436 39.4442 39.6297 39.4124C39.6158 39.3806 39.5954 39.352 39.5698 39.3286C39.5442 39.3051 39.514 39.2872 39.4811 39.2761C39.4482 39.265 39.4134 39.2608 39.3788 39.264H39.3863ZM37.6134 26.774C37.5539 26.771 37.4956 26.7918 37.4514 26.8318C37.4072 26.8718 37.3807 26.9277 37.3778 26.9872C37.3748 27.0467 37.3956 27.105 37.4355 27.1492C37.4755 27.1933 37.5314 27.2198 37.5909 27.2228C37.6204 27.2243 37.6499 27.2199 37.6777 27.21C37.7055 27.2001 37.731 27.1848 37.7529 27.165C37.7748 27.1452 37.7926 27.1213 37.8052 27.0947C37.8178 27.068 37.8251 27.0391 37.8266 27.0096C37.8281 26.9802 37.8237 26.9507 37.8138 26.9229C37.8039 26.8951 37.7886 26.8695 37.7688 26.8477C37.749 26.8258 37.7251 26.808 37.6984 26.7954C37.6718 26.7827 37.6429 26.7755 37.6134 26.774ZM44.7648 39.1792C44.6978 39.1762 44.6316 39.1933 44.5744 39.2282C44.5172 39.2631 44.4718 39.3143 44.4439 39.3752C44.4159 39.4361 44.4068 39.5039 44.4177 39.57C44.4285 39.6361 44.4589 39.6975 44.5048 39.7462C44.5507 39.795 44.6101 39.829 44.6755 39.8438C44.7408 39.8586 44.809 39.8536 44.8715 39.8293C44.934 39.8051 44.9878 39.7628 45.0261 39.7079C45.0644 39.6529 45.0854 39.5878 45.0864 39.5208C45.0878 39.4772 45.0805 39.4338 45.065 39.3931C45.0496 39.3524 45.0263 39.3151 44.9964 39.2833C44.9665 39.2516 44.9307 39.2261 44.8909 39.2082C44.8512 39.1903 44.8083 39.1805 44.7648 39.1792ZM45.0864 34.1598C45.0894 34.0928 45.0723 34.0265 45.0374 33.9694C45.0025 33.9122 44.9513 33.8668 44.8904 33.8388C44.8295 33.8109 44.7617 33.8018 44.6956 33.8127C44.6295 33.8235 44.5681 33.8538 44.5194 33.8998C44.4706 33.9457 44.4366 34.0051 44.4218 34.0704C44.407 34.1358 44.4121 34.204 44.4363 34.2665C44.4605 34.329 44.5028 34.3828 44.5577 34.4211C44.6127 34.4593 44.6778 34.4804 44.7448 34.4814C44.8317 34.4848 44.9164 34.4537 44.9804 34.3948C45.0444 34.3359 45.0825 34.2541 45.0864 34.1672V34.1598ZM44.7573 37.4013C44.6903 37.3998 44.6244 37.4184 44.568 37.4545C44.5116 37.4907 44.4673 37.5429 44.4408 37.6044C44.4142 37.6659 44.4066 37.734 44.4189 37.7998C44.4313 37.8657 44.463 37.9264 44.51 37.9741C44.557 38.0218 44.6172 38.0544 44.6829 38.0678C44.7485 38.0811 44.8167 38.0745 44.8786 38.0489C44.9405 38.0232 44.9933 37.9797 45.0304 37.9239C45.0674 37.8681 45.0869 37.8024 45.0864 37.7354C45.0874 37.6916 45.0796 37.648 45.0636 37.6072C45.0475 37.5664 45.0234 37.5292 44.9927 37.4979C44.962 37.4665 44.9254 37.4416 44.885 37.4246C44.8446 37.4076 44.8011 37.3988 44.7573 37.3988V37.4013ZM44.7573 32.0328C44.6903 32.0313 44.6244 32.0498 44.568 32.086C44.5116 32.1222 44.4673 32.1744 44.4408 32.2359C44.4142 32.2974 44.4066 32.3655 44.4189 32.4313C44.4313 32.4972 44.463 32.5578 44.51 32.6056C44.557 32.6533 44.6172 32.6859 44.6829 32.6992C44.7485 32.7126 44.8167 32.706 44.8786 32.6804C44.9405 32.6547 44.9933 32.6112 45.0304 32.5554C45.0674 32.4995 45.0869 32.4339 45.0864 32.3669C45.0874 32.3231 45.0796 32.2795 45.0636 32.2387C45.0475 32.1979 45.0234 32.1607 44.9927 32.1293C44.962 32.098 44.9254 32.0731 44.885 32.0561C44.8446 32.039 44.8011 32.0303 44.7573 32.0303V32.0328ZM44.7573 35.611C44.6904 35.6085 44.6244 35.626 44.5675 35.6612C44.5107 35.6965 44.4656 35.7478 44.4381 35.8088C44.4105 35.8698 44.4018 35.9375 44.4129 36.0035C44.4241 36.0694 44.4546 36.1306 44.5007 36.1791C44.5467 36.2276 44.6062 36.2613 44.6714 36.2759C44.7367 36.2905 44.8049 36.2853 44.8672 36.261C44.9295 36.2367 44.9831 36.1944 45.0213 36.1394C45.0595 36.0845 45.0804 36.0195 45.0814 35.9526C45.0831 35.909 45.0762 35.8656 45.061 35.8247C45.0459 35.7838 45.0228 35.7463 44.9932 35.7144C44.9636 35.6824 44.9279 35.6566 44.8883 35.6384C44.8487 35.6203 44.8058 35.6101 44.7623 35.6085L44.7573 35.611ZM44.7423 30.2425C44.6557 30.2438 44.573 30.2789 44.5119 30.3404C44.4509 30.402 44.4163 30.4849 44.4157 30.5716C44.4229 30.6556 44.4614 30.7337 44.5235 30.7907C44.5856 30.8477 44.6668 30.8793 44.7511 30.8793C44.8353 30.8793 44.9165 30.8477 44.9786 30.7907C45.0407 30.7337 45.0792 30.6556 45.0864 30.5716C45.0864 30.5274 45.0776 30.4837 45.0605 30.4429C45.0434 30.4022 45.0183 30.3653 44.9867 30.3344C44.9551 30.3035 44.9176 30.2792 44.8765 30.263C44.8354 30.2468 44.7915 30.239 44.7473 30.24L44.7423 30.2425ZM46.5401 39.1692C46.4698 39.1683 46.4008 39.1881 46.3418 39.2263C46.2827 39.2644 46.2363 39.3192 46.2083 39.3836C46.1802 39.4481 46.1719 39.5194 46.1843 39.5886C46.1967 39.6578 46.2293 39.7218 46.278 39.7726C46.3266 39.8233 46.3892 39.8585 46.4578 39.8738C46.5265 39.8891 46.5981 39.8837 46.6637 39.8584C46.7292 39.8331 46.7859 39.789 46.8265 39.7316C46.8671 39.6742 46.8898 39.606 46.8917 39.5358C46.8911 39.4431 46.8547 39.3542 46.7901 39.2878C46.7255 39.2213 46.6378 39.1824 46.5451 39.1792L46.5401 39.1692ZM44.7523 28.4471C44.6853 28.4456 44.6194 28.4642 44.563 28.5004C44.5066 28.5365 44.4623 28.5887 44.4358 28.6502C44.4092 28.7118 44.4016 28.7798 44.414 28.8456C44.4263 28.9115 44.458 28.9722 44.505 29.0199C44.552 29.0676 44.6122 29.1002 44.6779 29.1136C44.7435 29.1269 44.8117 29.1203 44.8736 29.0947C44.9355 29.0691 44.9883 29.0255 45.0254 28.9697C45.0624 28.9139 45.0819 28.8483 45.0814 28.7813C45.0802 28.6957 45.0456 28.614 44.9851 28.5535C44.9246 28.493 44.8429 28.4584 44.7573 28.4571L44.7523 28.4471ZM41.1866 32.0852C41.1158 32.0874 41.0485 32.1162 40.998 32.1658C40.9475 32.2155 40.9175 32.2823 40.9141 32.353C40.9106 32.4237 40.9339 32.4932 40.9793 32.5475C41.0247 32.6018 41.0889 32.6371 41.1592 32.6462C41.1969 32.6489 41.2349 32.6439 41.2706 32.6313C41.3064 32.6188 41.3392 32.5991 41.367 32.5734C41.3948 32.5477 41.417 32.5165 41.4323 32.4819C41.4476 32.4472 41.4556 32.4098 41.4559 32.3719C41.4576 32.3353 41.4519 32.2987 41.4391 32.2643C41.4264 32.2299 41.4069 32.1984 41.3818 32.1716C41.3567 32.1449 41.3265 32.1235 41.293 32.1086C41.2594 32.0938 41.2233 32.0858 41.1866 32.0852ZM41.4559 28.7937C41.4573 28.7384 41.4423 28.6838 41.4129 28.6369C41.3834 28.59 41.3408 28.5528 41.2904 28.5299C41.2399 28.5071 41.1838 28.4997 41.1291 28.5085C41.0745 28.5174 41.0236 28.5421 40.9829 28.5797C40.9423 28.6173 40.9136 28.6661 40.9005 28.7199C40.8873 28.7737 40.8904 28.8302 40.9092 28.8823C40.928 28.9344 40.9617 28.9798 41.0062 29.0128C41.0506 29.0459 41.1038 29.0651 41.1592 29.068C41.1969 29.0707 41.2349 29.0657 41.2706 29.0532C41.3064 29.0406 41.3392 29.0209 41.367 28.9952C41.3948 28.9695 41.417 28.9383 41.4323 28.9037C41.4476 28.869 41.4556 28.8316 41.4559 28.7937ZM41.1741 26.7117C41.0994 26.7117 41.0277 26.7413 40.9749 26.7942C40.922 26.847 40.8924 26.9187 40.8924 26.9934C40.8924 27.0681 40.922 27.1398 40.9749 27.1927C41.0277 27.2455 41.0994 27.2752 41.1741 27.2752C41.2108 27.2749 41.247 27.2673 41.2808 27.253C41.3146 27.2386 41.3452 27.2178 41.3709 27.1916C41.3966 27.1655 41.4169 27.1345 41.4306 27.1005C41.4443 27.0665 41.4512 27.0301 41.4509 26.9934C41.4516 26.9567 41.4449 26.9201 41.4313 26.886C41.4177 26.8518 41.3974 26.8207 41.3716 26.7945C41.3458 26.7682 41.3151 26.7474 41.2812 26.7332C41.2473 26.719 41.2109 26.7116 41.1741 26.7117ZM41.1741 30.2898C41.1182 30.2888 41.0632 30.3045 41.0162 30.3349C40.9693 30.3652 40.9324 30.4089 40.9103 30.4603C40.8882 30.5117 40.8819 30.5685 40.8922 30.6234C40.9025 30.6784 40.9289 30.7291 40.9681 30.769C41.0073 30.8089 41.0575 30.8362 41.1123 30.8475C41.1671 30.8588 41.224 30.8535 41.2758 30.8324C41.3276 30.8112 41.3719 30.7751 41.403 30.7286C41.4342 30.6822 41.4509 30.6275 41.4509 30.5716C41.4512 30.5352 41.4443 30.499 41.4305 30.4653C41.4167 30.4316 41.3963 30.4009 41.3706 30.3751C41.3448 30.3494 41.3142 30.329 41.2804 30.3152C41.2467 30.3014 41.2106 30.2945 41.1741 30.2948V30.2898ZM42.9669 39.2091C42.9055 39.2071 42.8449 39.2235 42.7928 39.2561C42.7407 39.2888 42.6995 39.3362 42.6745 39.3923C42.6495 39.4485 42.6418 39.5108 42.6524 39.5714C42.663 39.6319 42.6914 39.6879 42.7339 39.7323C42.7765 39.7766 42.8313 39.8073 42.8914 39.8203C42.9514 39.8333 43.014 39.8282 43.0712 39.8055C43.1283 39.7828 43.1773 39.7436 43.2121 39.6929C43.2468 39.6422 43.2656 39.5823 43.2662 39.5208C43.2669 39.4414 43.2365 39.3648 43.1815 39.3075C43.1265 39.2502 43.0513 39.2167 42.9719 39.2141L42.9669 39.2091ZM42.9669 26.6842C42.9055 26.6822 42.8449 26.6986 42.7928 26.7313C42.7407 26.7639 42.6995 26.8113 42.6745 26.8675C42.6495 26.9236 42.6418 26.9859 42.6524 27.0465C42.663 27.107 42.6914 27.163 42.7339 27.2074C42.7765 27.2517 42.8313 27.2824 42.8914 27.2954C42.9514 27.3085 43.014 27.3033 43.0712 27.2806C43.1283 27.2579 43.1773 27.2187 43.2121 27.168C43.2468 27.1173 43.2656 27.0574 43.2662 26.9959C43.2669 26.9165 43.2365 26.84 43.1815 26.7827C43.1265 26.7253 43.0513 26.6918 42.9719 26.6892L42.9669 26.6842ZM42.952 35.6309C42.8912 35.6329 42.8323 35.6527 42.7828 35.688C42.7332 35.7233 42.6951 35.7723 42.6733 35.8291C42.6515 35.8859 42.6469 35.9479 42.6602 36.0072C42.6734 36.0666 42.7039 36.1208 42.7477 36.1629C42.7916 36.205 42.8469 36.2333 42.9068 36.2442C42.9666 36.255 43.0283 36.248 43.0842 36.224C43.1401 36.1999 43.1876 36.1599 43.2209 36.109C43.2541 36.0581 43.2716 35.9985 43.2712 35.9376C43.2708 35.897 43.2624 35.8569 43.2464 35.8196C43.2303 35.7823 43.2069 35.7487 43.1777 35.7205C43.1484 35.6924 43.1138 35.6704 43.0759 35.6559C43.038 35.6414 42.9975 35.6346 42.957 35.6359L42.952 35.6309ZM42.952 37.4188C42.8905 37.4183 42.8303 37.4361 42.779 37.47C42.7277 37.5039 42.6877 37.5523 42.6641 37.6091C42.6405 37.6658 42.6343 37.7283 42.6463 37.7886C42.6584 37.8489 42.6882 37.9042 42.7318 37.9475C42.7754 37.9908 42.831 38.0201 42.8914 38.0316C42.9517 38.0432 43.0142 38.0365 43.0707 38.0124C43.1273 37.9883 43.1754 37.9479 43.2088 37.8964C43.2423 37.8448 43.2597 37.7844 43.2587 37.723C43.255 37.6466 43.2226 37.5744 43.1681 37.5208C43.1136 37.4672 43.0409 37.4361 42.9645 37.4337L42.952 37.4188Z" fill="#BEBEBE"/>
</svg>
